<svg width="161" height="30" viewBox="0 0 161 30" fill="none" xmlns="http://www.w3.org/2000/svg">
<path d="M151.984 19.2512C151.983 19.7444 151.885 20.2325 151.696 20.6878C151.506 21.1431 151.229 21.5566 150.88 21.9047C150.532 22.2528 150.118 22.5287 149.662 22.7166C149.207 22.9046 148.719 23.0009 148.226 23L138.744 22.9834C137.749 22.9817 136.796 22.5844 136.094 21.8789C135.392 21.1734 134.998 20.2175 135 19.2216L135.016 9.74879C135.017 9.25563 135.115 8.76747 135.304 8.31218C135.494 7.8569 135.771 7.44339 136.12 7.09529C136.468 6.74718 136.882 6.47129 137.338 6.28336C137.793 6.09543 138.281 5.99915 138.774 6.00001L148.256 6.01658C149.251 6.01832 150.204 6.41564 150.906 7.12113C151.608 7.82661 152.002 8.78247 152 9.77844L151.984 19.2512ZM150.759 9.95072C150.759 9.59929 150.691 9.25117 150.557 8.92625C150.423 8.60133 150.227 8.30597 149.979 8.05703C149.731 7.80809 149.437 7.61045 149.113 7.47539C148.789 7.34034 148.442 7.27051 148.091 7.26989L138.924 7.25387C138.573 7.25325 138.225 7.32186 137.901 7.45578C137.576 7.5897 137.281 7.78631 137.032 8.03438C136.784 8.28244 136.586 8.57712 136.452 8.90156C136.317 9.22601 136.247 9.57389 136.246 9.92532L136.231 18.9839C136.23 19.3353 136.298 19.6834 136.432 20.0083C136.566 20.3333 136.762 20.6286 137.01 20.8776C137.258 21.1265 137.552 21.3241 137.876 21.4592C138.2 21.5943 138.548 21.6641 138.899 21.6647L148.065 21.6807C148.416 21.6813 148.764 21.6127 149.089 21.4788C149.413 21.3449 149.708 21.1483 149.957 20.9002C150.205 20.6522 150.403 20.3575 150.538 20.033C150.672 19.7086 150.742 19.3607 150.743 19.0093L150.759 9.95072Z" fill="black"/>
<rect x="139.491" y="14.0189" width="8.33962" height="1.28302" rx="0.641509" fill="black"/>
<rect x="144.302" y="10.4906" width="8.33962" height="1.28302" rx="0.641509" transform="rotate(90 144.302 10.4906)" fill="black"/>
</svg>
